<svg xmlns="http://www.w3.org/2000/svg" viewBox="0 0 18 18"><path d="M16.706 9.026 L16.677 9.044 16.721 9.129 16.722 9.167 16.680 9.204 16.694 9.277 16.710 9.304 16.692 9.375 16.697 9.443 16.668 9.500 16.632 9.528 16.639 9.591 16.619 9.655 16.597 9.734 16.587 9.737 16.601 9.790 16.561 9.893 16.592 9.950 16.563 9.949 16.542 10.022 16.504 10.072 16.500 10.145 16.485 10.156 16.462 10.234 16.442 10.279 16.400 10.322 16.365 10.405 16.349 10.460 16.350 10.466 16.334 10.507 16.299 10.616 16.259 10.609 16.252 10.712 16.194 10.749 16.170 10.751 16.128 10.831 16.105 10.895 16.093 10.920 16.068 10.934 16.002 11.006 16.014 11.054 15.933 11.090 15.916 11.160 15.904 11.202 15.833 11.226 15.826 11.258 15.795 11.290 15.767 11.339 15.719 11.378 15.655 11.449 15.643 11.473 15.572 11.502 15.577 11.524 15.531 11.616 15.449 11.629 15.436 11.684 15.409 11.707 15.341 11.765 15.300 11.794 15.241 11.788 15.222 11.867 15.180 11.859 15.110 11.922 15.093 11.967 15.061 11.976 15.024 11.976 14.981 12.062 14.897 12.095 14.883 12.124 14.800 12.141 14.794 12.176 14.709 12.195 14.698 12.241 14.624 12.235 14.581 12.286 14.568 12.309 14.521 12.307 14.484 12.329 14.408 12.385 14.345 12.382 14.332 12.427 14.286 12.433 14.206 12.451 14.216 12.464 14.133 12.518 14.067 12.514 14.022 12.576 13.991 12.609 13.968 12.618 13.939 12.643 13.867 12.617 13.850 12.680 13.806 12.659 13.757 12.715 13.668 12.700 13.657 12.771 13.591 12.752 13.552 12.795 13.512 12.802 13.471 12.803 13.423 12.860 13.367 12.835 13.358 12.869 13.297 12.889 13.222 12.916 13.193 12.941 13.176 12.937 13.143 12.973 13.095 12.958 13.035 12.980 12.999 12.971 12.939 13.034 12.937 13.019 12.885 13.043 12.818 13.078 12.812 13.054 12.767 13.062 12.695 13.092 12.667 13.112 12.662 13.117 12.590 13.135 12.554 13.189 12.499 13.151 12.456 13.209 12.437 13.181 12.431 13.216 12.356 13.225 12.328 13.229 12.268 13.252 12.263 13.274 12.207 13.302 12.209 13.334 12.147 13.318 12.143 13.323 12.064 13.380 12.061 13.386 12.030 13.397 11.971 13.429 11.930 13.434 11.931 13.425 11.893 13.441 11.856 13.457 11.821 13.529 11.799 13.515 11.748 13.567 11.715 13.537 11.650 13.564 11.643 13.588 11.587 13.603 11.599 13.617 11.552 13.652 11.530 13.688 11.456 13.672 11.420 13.717 11.441 13.743 11.362 13.750 11.327 13.774 11.328 13.824 11.294 13.835 11.234 13.815 11.216 13.860 11.186 13.880 11.132 13.940 11.132 13.914 11.108 13.936 11.040 13.993 11.041 13.976 10.976 14.012 10.969 14.024 10.959 14.095 10.912 14.093 10.883 14.151 10.863 14.150 10.808 14.203 10.757 14.227 10.731 14.237 10.723 14.259 10.685 14.257 10.666 14.291 10.611 14.345 10.593 14.393 10.553 14.367 10.528 14.397 10.486 14.440 10.423 14.448 10.420 14.477 10.355 14.540 10.327 14.557 10.311 14.567 10.268 14.629 10.229 14.661 10.167 14.679 10.137 14.712 10.102 14.706 10.106 14.749 10.075 14.775 10.005 14.804 9.946 14.878 9.938 14.865 9.902 14.928 9.872 14.932 9.796 14.971 9.767 14.982 9.751 15.016 9.677 15.070 9.650 15.082 9.583 15.110 9.545 15.140 9.502 15.168 9.489 15.210 9.443 15.249 9.383 15.240 9.330 15.289 9.326 15.284 9.298 15.335 9.252 15.375 9.171 15.403 9.159 15.443 9.066 15.450 9.053 15.454 8.994 15.500 8.976 15.508 8.887 15.559 8.881 15.568 8.823 15.607 8.763 15.650 8.716 15.627 8.676 15.694 8.631 15.695 8.546 15.738 8.511 15.718 8.496 15.737 8.393 15.792 8.359 15.824 8.318 15.841 8.266 15.817 8.219 15.882 8.174 15.857 8.117 15.874 8.033 15.938 8.007 15.947 7.922 15.915 7.927 15.967 7.871 16.001 7.765 15.994 7.747 16.026 7.701 16.031 7.651 16.016 7.578 16.028 7.506 16.021 7.492 16.036 7.417 16.062 7.342 16.055 7.301 16.098 7.216 16.103 7.215 16.103 7.117 16.095 7.050 16.111 7.039 16.122 6.985 16.090 6.923 16.109 6.872 16.134 6.792 16.088 6.770 16.099 6.685 16.092 6.639 16.073 6.561 16.111 6.530 16.107 6.500 16.069 6.403 16.066 6.366 16.057 6.299 16.050 6.249 16.051 6.169 16.069 6.158 16.027 6.085 16.024 6.053 16.044 5.975 15.981 5.957 15.987 5.870 15.958 5.792 15.939 5.754 15.920 5.746 15.898 5.668 15.912 5.584 15.873 5.538 15.887 5.520 15.861 5.467 15.804 5.419 15.789 5.360 15.800 5.331 15.784 5.290 15.733 5.233 15.679 5.173 15.697 5.122 15.657 5.086 15.627 5.009 15.588 4.983 15.584 4.957 15.549 4.877 15.474 4.815 15.461 4.802 15.446 4.748 15.407 4.723 15.374 4.673 15.311 4.614 15.298 4.573 15.258 4.572 15.217 4.521 15.160 4.493 15.136 4.406 15.128 4.408 15.060 4.344 15.021 4.291 14.969 4.276 14.961 4.245 14.874 4.211 14.856 4.162 14.791 4.155 14.792 4.144 14.702 4.095 14.655 4.076 14.625 4.005 14.607 3.983 14.512 3.984 14.474 3.954 14.454 3.919 14.412 3.897 14.369 3.830 14.310 3.807 14.242 3.776 14.200 3.795 14.128 3.730 14.124 3.711 14.062 3.711 14.007 3.717 13.958 3.681 13.891 3.668 13.836 3.625 13.766 3.624 13.720 3.574 13.684 3.565 13.636 3.541 13.560 3.541 13.512 3.543 13.493 3.507 13.414 3.533 13.390 3.499 13.324 3.455 13.230 3.496 13.212 3.440 13.127 3.455 13.121 3.414 13.015 3.460 12.996 3.428 12.929 3.437 12.860 3.412 12.818 3.376 12.786 3.377 12.691 3.415 12.675 3.414 12.616 3.411 12.577 3.402 12.526 3.380 12.450 3.368 12.406 3.355 12.342 3.343 12.312 3.388 12.256 3.390 12.202 3.368 12.100 3.351 12.059 3.352 12.018 3.393 11.957 3.380 11.905 3.364 11.846 3.373 11.802 3.405 11.771 3.362 11.689 3.415 11.649 3.368 11.628 3.412 11.587 3.405 11.531 3.380 11.459 3.409 11.395 3.426 11.349 3.426 11.282 3.438 11.263 3.431 11.217 3.445 11.158 3.422 11.089 3.433 11.054 3.449 11.008 3.485 10.951 3.454 10.912 3.450 10.900 3.478 10.865 3.502 10.780 3.519 10.740 3.490 10.692 3.495 10.637 3.497 10.589 3.498 10.559 3.538 10.519 3.522 10.461 3.571 10.445 3.546 10.381 3.537 10.350 3.556 10.318 3.550 10.254 3.562 10.196 3.588 10.149 3.576 10.165 3.586 10.106 3.634 10.057 3.606 10.035 3.644 9.970 3.654 9.915 3.616 9.871 3.632 9.835 3.643 9.803 3.656 9.782 3.634 9.704 3.629 9.710 3.657 9.633 3.668 9.611 3.679 9.595 3.680 9.533 3.691 9.499 3.703 9.464 3.703 9.425 3.697 9.374 3.702 9.320 3.682 9.302 3.710 9.259 3.697 9.250 3.673 9.174 3.704 9.162 3.714 9.103 3.692 9.053 3.698 9.052 3.678 8.994 3.728 8.965 3.709 8.909 3.673 8.910 3.668 8.820 3.687 8.822 3.691 8.749 3.694 8.733 3.683 8.717 3.702 8.680 3.709 8.609 3.660 8.589 3.663 8.556 3.672 8.518 3.648 8.464 3.651 8.451 3.640 8.366 3.633 8.375 3.664 8.330 3.635 8.244 3.661 8.239 3.620 8.166 3.659 8.155 3.611 8.136 3.610 8.078 3.600 8.019 3.594 8.010 3.607 7.935 3.611 7.923 3.582 7.879 3.608 7.823 3.568 7.777 3.580 7.709 3.570 7.668 3.543 7.623 3.555 7.590 3.522 7.580 3.521 7.493 3.505 7.486 3.522 7.458 3.535 7.412 3.528 7.331 3.512 7.310 3.514 7.257 3.466 7.192 3.484 7.144 3.473 7.125 3.482 7.074 3.484 7.023 3.474 6.968 3.465 6.915 3.423 6.880 3.437 6.832 3.437 6.787 3.412 6.762 3.435 6.686 3.428 6.645 3.392 6.612 3.412 6.529 3.382 6.492 3.422 6.421 3.366 6.405 3.410 6.331 3.391 6.271 3.359 6.214 3.371 6.215 3.378 6.141 3.386 6.070 3.400 6.045 3.400 5.971 3.365 5.896 3.370 5.862 3.349 5.830 3.395 5.746 3.344 5.741 3.402 5.640 3.369 5.626 3.375 5.581 3.371 5.474 3.399 5.459 3.377 5.369 3.394 5.336 3.410 5.259 3.420 5.247 3.390 5.179 3.390 5.133 3.434 5.048 3.428 5.005 3.463 4.948 3.455 4.935 3.472 4.827 3.464 4.810 3.459 4.717 3.514 4.719 3.506 4.663 3.502 4.579 3.544 4.505 3.548 4.466 3.580 4.400 3.606 4.369 3.598 4.327 3.586 4.254 3.623 4.206 3.641 4.157 3.699 4.081 3.666 4.031 3.704 3.981 3.744 3.965 3.777 3.892 3.755 3.871 3.796 3.798 3.854 3.782 3.876 3.700 3.880 3.667 3.925 3.585 3.939 3.582 3.940 3.491 4.019 3.482 3.994 3.416 4.078 3.351 4.064 3.335 4.091 3.268 4.168 3.240 4.201 3.210 4.220 3.117 4.239 3.108 4.281 3.074 4.317 3.005 4.341 2.997 4.409 2.927 4.405 2.923 4.498 2.874 4.507 2.801 4.578 2.776 4.613 2.728 4.609 2.705 4.672 2.665 4.689 2.650 4.769 2.578 4.798 2.548 4.844 2.533 4.881 2.530 4.941 2.441 4.966 2.419 5.019 2.394 5.097 2.396 5.106 2.372 5.164 2.306 5.201 2.289 5.264 2.284 5.282 2.246 5.345 2.206 5.410 2.171 5.485 2.201 5.532 2.181 5.586 2.112 5.590 2.095 5.658 2.113 5.746 2.077 5.776 2.028 5.848 2.029 5.888 2.053 5.926 1.990 5.987 2.008 6.061 1.980 6.079 1.980 6.123 1.965 6.205 1.979 6.280 1.934 6.334 1.901 6.389 1.910 6.442 1.936 6.484 1.887 6.543 1.926 6.598 1.885 6.655 1.903 6.703 1.869 6.721 1.920 6.797 1.874 6.868 1.920 6.894 1.916 6.979 1.910 7.048 1.891 7.092 1.890 7.135 1.917 7.165 1.883 7.274 1.893 7.329 1.902 7.382 1.915 7.408 1.941 7.450 1.957 7.549 1.940 7.603 1.938 7.615 1.951 7.689 1.991 7.713 2.012 7.778 2.019 7.819 2.011 7.887 2.015 7.977 2.067 8.032 2.062 8.063 2.084 8.134 2.088 8.136 2.136 8.196 2.168 8.279 2.155 8.307 2.175 8.365 2.188 8.405 2.240 8.484 2.231 8.544 2.237 8.545 2.255 8.617 2.296 8.666 2.354 8.727 2.332 8.740 2.383 8.789 2.399 8.848 2.397 8.882 2.428 8.982 2.495 9.018 2.504 9.024 2.498 9.093 2.544 9.135 2.583 9.165 2.630 9.250 2.610 9.291 2.635 9.309 2.661 9.339 2.719 9.424 2.723 9.464 2.771 9.465 2.806 9.517 2.809 9.588 2.875 9.626 2.892 9.625 2.923 9.695 2.935 9.741 2.974 9.766 3.021 9.805 3.012 9.857 3.089 9.876 3.119 9.960 3.092 9.998 3.118 10.023 3.198 10.016 3.216 10.101 3.235 10.119 3.249 10.175 3.269 10.179 3.350 10.236 3.326 10.272 3.379 10.325 3.433 10.339 3.419 10.357 3.469 10.397 3.499 10.458 3.520 10.502 3.530 10.520 3.599 10.520 3.596 10.601 3.645 10.593 3.634 10.615 3.714 10.690 3.736 10.732 3.765 10.727 3.773 10.781 3.774 10.785 3.843 10.840 3.823 10.882 3.845 10.883 3.888 10.965 3.940 10.993 3.957 11.027 3.986 11.058 3.978 11.065 4.026 11.082 4.066 11.154 4.074 11.146 4.098 11.185 4.130 11.199 4.123 11.253 4.129 11.308 4.202 11.290 4.197 11.332 4.216 11.357 4.270 11.431 4.286 11.445 4.308 11.458 4.281 11.511 4.349 11.549 4.371 11.560 4.363 11.588 4.384 11.619 4.423 11.647 4.415 11.721 4.469 11.719 4.471 11.766 4.477 11.829 4.489 11.830 4.538 11.880 4.510 11.914 4.539 11.946 4.576 11.963 4.592 12.014 4.586 12.023 4.620 12.103 4.614 12.102 4.621 12.145 4.642 12.215 4.692 12.208 4.698 12.256 4.687 12.302 4.724 12.329 4.745 12.377 4.762 12.420 4.759 12.470 4.784 12.470 4.823 12.540 4.839 12.557 4.839 12.577 4.869 12.663 4.845 12.683 4.891 12.724 4.905 12.762 4.936 12.817 4.903 12.848 4.925 12.881 4.931 12.913 4.988 12.965 4.993 12.972 4.981 13.041 5.042 13.087 5.057 13.094 5.024 13.154 5.069 13.190 5.103 13.228 5.076 13.264 5.089 13.363 5.147 13.365 5.176 13.393 5.188 13.445 5.171 13.513 5.183 13.525 5.209 13.572 5.229 13.667 5.277 13.660 5.286 13.743 5.326 13.771 5.287 13.812 5.353 13.875 5.344 13.897 5.392 13.960 5.368 13.996 5.421 14.061 5.427 14.075 5.442 14.126 5.494 14.212 5.511 14.256 5.548 14.284 5.582 14.339 5.564 14.378 5.600 14.409 5.600 14.454 5.682 14.493 5.688 14.541 5.680 14.595 5.725 14.619 5.761 14.709 5.781 14.751 5.797 14.757 5.821 14.829 5.858 14.847 5.894 14.912 5.959 14.968 5.955 14.982 5.982 15.057 6.010 15.079 6.076 15.137 6.117 15.191 6.151 15.244 6.162 15.234 6.195 15.275 6.220 15.363 6.275 15.385 6.307 15.438 6.324 15.488 6.373 15.516 6.418 15.543 6.475 15.573 6.494 15.654 6.504 15.661 6.581 15.713 6.605 15.725 6.657 15.773 6.688 15.804 6.715 15.873 6.773 15.896 6.840 15.908 6.847 15.982 6.896 16.000 6.957 16.012 6.996 16.041 7.024 16.072 7.101 16.145 7.154 16.168 7.156 16.200 7.228 16.236 7.251 16.253 7.299 16.285 7.358 16.280 7.401 16.302 7.452 16.322 7.509 16.339 7.570 16.364 7.585 16.402 7.667 16.445 7.712 16.449 7.763 16.505 7.821 16.492 7.854 16.522 7.903 16.558 7.960 16.556 8.051 16.542 8.063 16.591 8.105 16.569 8.180 16.638 8.237 16.642 8.287 16.609 8.316 16.644 8.425 16.655 8.480 16.644 8.506 16.647 8.590 16.694 8.608 16.676 8.685 16.679 8.731 16.669 8.787 16.679 8.835 16.708 8.875 16.673 8.928Z" fill="#fbbc04" stroke="#34a853" stroke-width="1.2"/></svg>
